Coordinates
version=1
nRows=49
nColumns=12
inDegrees=yes

Units are S.I. units (second, meters, Newtons, ...)
Angles are in degrees

endheader
time	SC_y	SC_z	SC_x	AC_y	AC_z	AC_x	GH_y	GH_z	GH_yy	EL_x	PS_y
       0.0              -13.04          7.871           24.2          53.45          7.695          12.61          125.1          32.78         -173.0          88.66          136.4
  0.002535              -13.04          7.872           24.2          53.45          7.693          12.61          125.1          32.78         -173.0          88.66          136.4
   0.00507              -13.04          7.872           24.2          53.45           7.69           12.6          125.1          32.78         -172.9          88.67          136.4
  0.007605              -13.04          7.873          24.21          53.46          7.687           12.6          125.1          32.78         -172.9          88.68          136.4
   0.01014              -13.05          7.873          24.21          53.46          7.684           12.6          125.1          32.79         -172.9          88.69          136.4
   0.01268              -13.05          7.874          24.21          53.46           7.68          12.59          125.1          32.79         -172.9           88.7          136.3
   0.01521              -13.05          7.874          24.22          53.46          7.677          12.59          125.1          32.79         -172.8           88.7          136.3
   0.01775              -13.05          7.875          24.22          53.46          7.673          12.59          125.1          32.79         -172.8          88.71          136.3
   0.02028              -13.05          7.876          24.23          53.47          7.669          12.58          125.1           32.8         -172.8          88.72          136.3
   0.02282              -13.06          7.876          24.23          53.47          7.664          12.58          125.1           32.8         -172.8          88.74          136.3
   0.02535              -13.06          7.877          24.24          53.47           7.66          12.57          125.1           32.8         -172.7          88.75          136.3
   0.02789              -13.06          7.878          24.24          53.48          7.654          12.57          125.1          32.81         -172.7          88.76          136.2
   0.03042              -13.06          7.879          24.25          53.48          7.649          12.56          125.1          32.81         -172.7          88.77          136.2
   0.03296              -13.07           7.88          24.26          53.48          7.643          12.56          125.1          32.82         -172.6          88.79          136.2
   0.03549              -13.07          7.881          24.26          53.49          7.636          12.55          125.1          32.82         -172.6          88.81          136.2
   0.03803              -13.08          7.882          24.27          53.49          7.629          12.54          125.1          32.83         -172.5          88.82          136.1
   0.04056              -13.08          7.883          24.28           53.5          7.622          12.53          125.1          32.83         -172.5          88.84          136.1
    0.0431              -13.08          7.884          24.29           53.5          7.613          12.53          125.0          32.84         -172.4          88.86          136.1
   0.04563              -13.09          7.886           24.3          53.51          7.604          12.52          125.0          32.85         -172.4          88.89          136.1
   0.04817              -13.09          7.887          24.31          53.52          7.594          12.51          125.0          32.85         -172.3          88.91          136.0
    0.0507               -13.1          7.889          24.33          53.52          7.583           12.5          125.0          32.86         -172.2          88.94          136.0
   0.05324              -13.11          7.891          24.34          53.53          7.571          12.48          125.0          32.87         -172.1          88.97          135.9
   0.05577              -13.11          7.893          24.36          53.54          7.558          12.47          125.0          32.88         -172.1           89.0          135.9
   0.05831              -13.12          7.895          24.37          53.55          7.543          12.46          125.0          32.89         -172.0          89.04          135.8
   0.06084              -13.13          7.898          24.39          53.56          7.527          12.44          125.0           32.9         -171.9          89.08          135.8
   0.06338              -13.14            7.9          24.41          53.57          7.508          12.42          125.0          32.92         -171.7          89.12          135.7
   0.06591              -13.15          7.904          24.44          53.58          7.488           12.4          125.0          32.93         -171.6          89.17          135.6
   0.06845              -13.16          7.907          24.46           53.6          7.465          12.38          125.0          32.95         -171.5          89.23          135.5
   0.07098              -13.18          7.911          24.49          53.61          7.439          12.35          125.0          32.97         -171.3           89.3          135.4
   0.07352              -13.19          7.916          24.53          53.63          7.409          12.32          124.9          32.99         -171.1          89.37          135.3
   0.07605              -13.21          7.921          24.57          53.65          7.376          12.29          124.9          33.02         -170.9          89.45          135.2
   0.07859              -13.23          7.927          24.61          53.68          7.337          12.25          124.9          33.05         -170.6          89.55          135.0
   0.08112              -13.25          7.934          24.66          53.71          7.292           12.2          124.9          33.08         -170.3          89.66          134.9
   0.08366              -13.28          7.942          24.72          53.74           7.24          12.15          124.9          33.12         -170.0          89.79          134.7
   0.08619              -13.31          7.952          24.79          53.78          7.179          12.09          124.8          33.17         -169.6          89.94          134.4
   0.08873              -13.35          7.963          24.87          53.83          7.108          12.02          124.8          33.22         -169.1          90.12          134.2
   0.09126              -13.39          7.976          24.97          53.88          7.023          11.93          124.7          33.29         -168.5          90.33          133.9
    0.0938              -13.45          7.992          25.09          53.95           6.92          11.83          124.7          33.36         -167.9          90.58          133.5
   0.09633              -13.51          8.011          25.23          54.03          6.797          11.71          124.6          33.46         -167.1          90.89          133.0
   0.09887              -13.59          8.034          25.41          54.12          6.646          11.56          124.6          33.57         -166.1          91.27          132.4
    0.1014              -13.69          8.063          25.62          54.24           6.46          11.37          124.5          33.71         -164.8          91.73          131.7
    0.1039              -13.81          8.099          25.89          54.39          6.228          11.14          124.3          33.89         -163.3          92.31          130.8
    0.1065              -13.97          8.145          26.22          54.58          5.935          10.84          124.2          34.11         -161.4          93.03          129.7
     0.109              -14.16          8.202          26.65          54.81          5.563          10.47          124.0          34.39         -158.9          93.96          128.3
    0.1115              -14.41          8.276           27.2          55.12          5.087          9.992          123.8          34.75         -155.8          95.14          126.5
    0.1141              -14.74          8.371           27.9          55.51          4.476           9.38          123.5          35.21         -151.8          96.66          124.2
    0.1166              -15.15          8.492           28.8          56.01          3.696          8.597          123.1           35.8         -146.6           98.6          121.3
    0.1191              -15.66          8.645          29.93          56.64          2.715          7.614          122.6          36.54         -140.2          101.0          117.6
    0.1217              -16.29           8.83          31.31           57.4           1.52          6.415          122.0          37.45         -132.3          104.0          113.0
